<?xml version="1.0" encoding="UTF-8"?>
<svg width="1096px" height="219px" viewBox="0 0 1096 219" version="1.1" xmlns="http://www.w3.org/2000/svg" xmlns:xlink="http://www.w3.org/1999/xlink">
    <title>liblab-generation-flow-dark</title>
    <g id="Page-1" stroke="none" stroke-width="1" fill="none" fill-rule="evenodd">
        <g id="Apple-TV" transform="translate(-64, -63)">
            <g id="liblab-generation-flow-dark" transform="translate(64, 63)">
                <g id="liblab-cli" transform="translate(483, 49.5)">
                    <rect id="Rectangle-Copy" stroke="#FFFFFF" stroke-width="2" x="1" y="1" width="128" height="118" rx="27"></rect>
                    <g id="Icon-White" transform="translate(26, 19)" fill="#FFFFFF">
                        <path d="M12.3566,0 L12.3566,18.5657 C14.1534,16.9243 16.5448,15.9234 19.1682,15.9234 L29.1664,15.9234 L29.1664,19.2141 L19.1682,19.2141 C15.4089,19.2141 12.3565,22.2624 12.3565,26.0258 L12.3565,31.461 L12.362,31.461 L12.362,40.3294 C12.362,43.8706 10.5401,46.9844 7.78455,48.788 C10.5385,50.5933 12.3565,53.7075 12.3565,57.2432 L12.3565,64.8065 L12.3565,71.5524 C12.3565,75.3117 15.4048,78.3641 19.1682,78.3641 L29.1664,78.3641 L29.1664,81.6548 L19.1682,81.6548 C13.5861,81.6548 9.06583,77.1277 9.06583,71.5524 L9.06581,67.6144 L9.06581,57.2432 C9.06581,53.4986 6.04115,50.4553 2.29799,50.4317 L2.2596,50.4318 L0,50.4318 L0,50.4315 L0,47.1411 L0,47.1409 L2.25411,47.1409 L2.29867,47.141 C6.04,47.1199 9.0713,44.0797 9.0713,40.3294 L9.0713,35.7388 L9.06583,35.7388 L9.06583,26.0258 C9.06583,25.5189 9.10315,25.0208 9.17521,24.534 C4.12951,22.9297 0.477219,18.2098 0.477219,12.6328 C0.477219,6.62157 4.71907,1.62137 10.3695,0.421824 L12.3566,0 Z M9.06589,4.3073 C5.9331,5.77515 3.7679,8.94945 3.7679,12.6328 C3.7679,16.3181 5.93467,19.4985 9.06589,20.9651 L9.06589,4.3073 Z M66.4662,67.6144 L66.4662,71.5524 C66.4662,75.3117 63.4179,78.3641 59.6545,78.3641 L49.6618,78.3641 L49.6618,81.6548 L59.6545,81.6548 C65.2367,81.6548 69.7569,77.1277 69.7569,71.5524 L69.7569,64.8065 L69.7568,64.8065 L69.7568,57.2432 C69.7568,53.4979 72.7826,50.4541 76.5268,50.4317 L76.5685,50.4318 L78.8281,50.4318 L78.8281,50.4315 L78.8281,47.1411 L78.8281,47.1409 L76.5685,47.1409 L76.5272,47.141 C72.7869,47.1187 69.7568,44.0789 69.7568,40.3294 L69.7568,35.7388 L69.7624,35.7388 L69.7624,26.0258 C69.7624,25.5189 69.725,25.0208 69.653,24.534 C74.6987,22.9297 78.351,18.2098 78.351,12.6328 C78.351,6.62157 74.1091,1.62137 68.4586,0.421824 L66.4716,0 L66.4716,18.5657 C64.6748,16.9243 62.2834,15.9234 59.66,15.9234 L49.6618,15.9234 L49.6618,19.2141 L59.66,19.2141 C63.4193,19.2141 66.4717,22.2624 66.4717,26.0258 L66.4717,31.461 L66.4661,31.461 L66.4661,40.3294 C66.4661,43.8694 68.2868,46.9823 71.0408,48.7862 C68.2854,50.5912 66.4661,53.7063 66.4661,57.2432 L66.4661,67.6144 L66.4662,67.6144 Z M32.5118,63.6383 C29.6472,63.6383 27.3235,61.3146 27.3235,58.45 L24.0328,58.45 C24.0328,63.132 27.8298,66.929 32.5118,66.929 C35.3155,66.929 37.8018,65.5675 39.3455,63.4696 C40.8892,65.5675 43.3755,66.929 46.1792,66.929 C50.8612,66.929 54.6581,63.132 54.6581,58.45 L51.3675,58.45 C51.3675,61.3146 49.0438,63.6383 46.1792,63.6383 C43.3145,63.6383 40.9909,61.3146 40.9909,58.45 L40.9909,51.7007 L47.6608,48.3657 L46.1892,45.4224 L39.3455,48.8443 L32.5018,45.4224 L31.0301,48.3657 L37.7002,51.7007 L37.7002,58.45 L37.7001,58.45 C37.7001,61.3146 35.3764,63.6383 32.5118,63.6383 Z M50.2267,39.1283 C52.5317,39.1283 54.4003,37.2597 54.4003,34.9546 C54.4003,32.6496 52.5317,30.7809 50.2267,30.7809 C47.9216,30.7809 46.053,32.6496 46.053,34.9546 C46.053,37.2597 47.9216,39.1283 50.2267,39.1283 Z M32.6381,34.9546 C32.6381,37.2597 30.7694,39.1283 28.4644,39.1283 C26.1593,39.1283 24.2907,37.2597 24.2907,34.9546 C24.2907,32.6496 26.1593,30.7809 28.4644,30.7809 C30.7694,30.7809 32.6381,32.6496 32.6381,34.9546 Z M69.7623,20.9651 L69.7623,4.3073 C72.8951,5.77515 75.0603,8.94945 75.0603,12.6328 C75.0603,16.3181 72.8935,19.4985 69.7623,20.9651 Z" id="Shape"></path>
                    </g>
                </g>
                <g id="api-spec">
                    <rect id="Rectangle" stroke="#FFFFFF" stroke-width="2" x="1" y="1" width="325" height="79" rx="27"></rect>
                    <g id="API-spec" transform="translate(86.8565, 27.8182)" fill="#FFFFFF" fill-rule="nonzero">
                        <path d="M5.93181818,26.1818182 L0,26.1818182 L9.03835227,0 L16.171875,0 L25.1974432,26.1818182 L19.265625,26.1818182 L12.7073864,5.98295455 L12.5028409,5.98295455 L5.93181818,26.1818182 Z M5.56107955,15.890625 L19.5724432,15.890625 L19.5724432,20.2116477 L5.56107955,20.2116477 L5.56107955,15.890625 Z" id="Shape"></path>
                        <path d="M28.3423295,26.1818182 L28.3423295,0 L38.671875,0 C40.6576705,0 42.3494318,0.377130682 43.7471591,1.13139205 C45.1448864,1.88565341 46.212358,2.9296875 46.9495739,4.26349432 C47.6867898,5.59730114 48.0553977,7.13352273 48.0553977,8.87215909 C48.0553977,10.6107955 47.6803977,12.1448864 46.9303977,13.4744318 C46.1803977,14.8039773 45.0958807,15.8394886 43.6768466,16.5809659 C42.2578125,17.3224432 40.5426136,17.6931818 38.53125,17.6931818 L31.9474432,17.6931818 L31.9474432,13.2571023 L37.6363636,13.2571023 C38.7017045,13.2571023 39.5816761,13.071733 40.2762784,12.7009943 C40.9708807,12.3302557 41.490767,11.8146307 41.8359375,11.1541193 C42.181108,10.493608 42.3536932,9.73295455 42.3536932,8.87215909 C42.3536932,8.00284091 42.181108,7.2421875 41.8359375,6.59019886 C41.490767,5.93821023 40.96875,5.43110795 40.2698864,5.06889205 C39.5710227,4.70667614 38.6846591,4.52556818 37.6107955,4.52556818 L33.8778409,4.52556818 L33.8778409,26.1818182 L28.3423295,26.1818182 Z" id="Path"></path>
                        <polygon id="Path" points="57.1960227 0 57.1960227 26.1818182 51.6605114 26.1818182 51.6605114 0"></polygon>
                        <path d="M86.34375,12.1448864 L81.3579545,12.4517045 C81.2727273,12.0255682 81.0894886,11.6399148 80.8082386,11.2947443 C80.5269886,10.9495739 80.1583807,10.6725852 79.7024148,10.4637784 C79.2464489,10.2549716 78.703125,10.1505682 78.0724432,10.1505682 C77.2286932,10.1505682 76.5170455,10.3274148 75.9375,10.681108 C75.3579545,11.0348011 75.0681818,11.5056818 75.0681818,12.09375 C75.0681818,12.5625 75.2556818,12.9588068 75.6306818,13.2826705 C76.0056818,13.6065341 76.6491477,13.8664773 77.5610795,14.0625 L81.1150568,14.7784091 C83.0241477,15.1704545 84.4474432,15.8011364 85.3849432,16.6704545 C86.3224432,17.5397727 86.7911932,18.6818182 86.7911932,20.0965909 C86.7911932,21.3835227 86.4140625,22.5127841 85.6598011,23.484375 C84.9055398,24.4559659 83.8742898,25.212358 82.5660511,25.7535511 C81.2578125,26.2947443 79.7514205,26.5653409 78.046875,26.5653409 C75.4474432,26.5653409 73.3785511,26.022017 71.8401989,24.9353693 C70.3018466,23.8487216 69.4005682,22.3678977 69.1363636,20.4928977 L74.4928977,20.2116477 C74.6548295,21.0042614 75.046875,21.6072443 75.6690341,22.0205966 C76.2911932,22.4339489 77.0880682,22.640625 78.0596591,22.640625 C79.0142045,22.640625 79.7833807,22.4552557 80.3671875,22.084517 C80.9509943,21.7137784 81.2471591,21.234375 81.2556818,20.6463068 C81.2471591,20.1519886 81.0383523,19.7450284 80.6292614,19.4254261 C80.2201705,19.1058239 79.5894886,18.8607955 78.7372159,18.6903409 L75.3366477,18.0127841 C73.4190341,17.6292614 71.993608,16.9644886 71.0603693,16.0184659 C70.1271307,15.0724432 69.6605114,13.8664773 69.6605114,12.4005682 C69.6605114,11.1392045 70.0035511,10.0525568 70.6896307,9.140625 C71.3757102,8.22869318 72.3430398,7.52556818 73.5916193,7.03125 C74.8401989,6.53693182 76.3039773,6.28977273 77.9829545,6.28977273 C80.4630682,6.28977273 82.4169034,6.81392045 83.8444602,7.86221591 C85.272017,8.91051136 86.1051136,10.3380682 86.34375,12.1448864 Z" id="Path"></path>
                        <path d="M90.2301136,33.5454545 L90.2301136,6.54545455 L95.5994318,6.54545455 L95.5994318,9.84375 L95.8423295,9.84375 C96.0809659,9.31534091 96.428267,8.77627841 96.884233,8.2265625 C97.3401989,7.67684659 97.9367898,7.21661932 98.6740057,6.84588068 C99.4112216,6.47514205 100.329545,6.28977273 101.428977,6.28977273 C102.860795,6.28977273 104.181818,6.66264205 105.392045,7.40838068 C106.602273,8.15411932 107.569602,9.27485795 108.294034,10.7705966 C109.018466,12.2663352 109.380682,14.1392045 109.380682,16.3892045 C109.380682,18.5795455 109.029119,20.4268466 108.325994,21.931108 C107.622869,23.4353693 106.668324,24.5731534 105.462358,25.3444602 C104.256392,26.115767 102.90767,26.5014205 101.416193,26.5014205 C100.359375,26.5014205 99.462358,26.3267045 98.725142,25.9772727 C97.9879261,25.6278409 97.3849432,25.1867898 96.9161932,24.6541193 C96.4474432,24.1214489 96.0894886,23.5823864 95.8423295,23.0369318 L95.6761364,23.0369318 L95.6761364,33.5454545 L90.2301136,33.5454545 Z M95.5610795,16.3636364 C95.5610795,17.53125 95.7230114,18.5497159 96.046875,19.4190341 C96.3707386,20.2883523 96.8394886,20.9637784 97.453125,21.4453125 C98.0667614,21.9268466 98.8125,22.1676136 99.6903409,22.1676136 C100.576705,22.1676136 101.326705,21.9225852 101.940341,21.4325284 C102.553977,20.9424716 103.020597,20.2606534 103.340199,19.3870739 C103.659801,18.5134943 103.819602,17.5056818 103.819602,16.3636364 C103.819602,15.2301136 103.661932,14.2329545 103.346591,13.3721591 C103.03125,12.5113636 102.566761,11.8380682 101.953125,11.3522727 C101.339489,10.8664773 100.585227,10.6235795 99.6903409,10.6235795 C98.8039773,10.6235795 98.056108,10.8579545 97.446733,11.3267045 C96.837358,11.7954545 96.3707386,12.4602273 96.046875,13.3210227 C95.7230114,14.1818182 95.5610795,15.1960227 95.5610795,16.3636364 Z" id="Shape"></path>
                        <path d="M121.947443,26.5653409 C119.927557,26.5653409 118.191051,26.1541193 116.737926,25.3316761 C115.284801,24.509233 114.166193,23.3416193 113.382102,21.8288352 C112.598011,20.3160511 112.205966,18.5241477 112.205966,16.453125 C112.205966,14.4332386 112.598011,12.6605114 113.382102,11.1349432 C114.166193,9.609375 115.272017,8.42045455 116.699574,7.56818182 C118.127131,6.71590909 119.803977,6.28977273 121.730114,6.28977273 C123.025568,6.28977273 124.233665,6.49644886 125.354403,6.90980114 C126.475142,7.32315341 127.455256,7.94318182 128.294744,8.76988636 C129.134233,9.59659091 129.788352,10.634233 130.257102,11.8828125 C130.725852,13.131392 130.960227,14.5909091 130.960227,16.2613636 L130.960227,17.7571023 L114.379261,17.7571023 L114.379261,14.3821023 L125.833807,14.3821023 C125.833807,13.5980114 125.663352,12.9034091 125.322443,12.2982955 C124.981534,11.6931818 124.510653,11.2180398 123.909801,10.8728693 C123.308949,10.5276989 122.612216,10.3551136 121.819602,10.3551136 C120.992898,10.3551136 120.262074,10.5447443 119.627131,10.9240057 C118.992187,11.303267 118.495739,11.8103693 118.137784,12.4453125 C117.77983,13.0802557 117.596591,13.7855114 117.588068,14.5610795 L117.588068,17.7698864 C117.588068,18.7414773 117.769176,19.5809659 118.131392,20.2883523 C118.493608,20.9957386 119.007102,21.5411932 119.671875,21.9247159 C120.336648,22.3082386 121.125,22.5 122.036932,22.5 C122.642045,22.5 123.196023,22.4147727 123.698864,22.2443182 C124.201705,22.0738636 124.632102,21.8181818 124.990057,21.4772727 C125.348011,21.1363636 125.620739,20.71875 125.808239,20.2244318 L130.84517,20.5568182 C130.589489,21.7670455 130.067472,22.821733 129.279119,23.7208807 C128.490767,24.6200284 127.476562,25.318892 126.236506,25.8174716 C124.996449,26.3160511 123.566761,26.5653409 121.947443,26.5653409 Z" id="Path"></path>
                        <path d="M143.386364,26.5653409 C141.375,26.5653409 139.647017,26.1370739 138.202415,25.2805398 C136.757812,24.4240057 135.649858,23.2329545 134.878551,21.7073864 C134.107244,20.1818182 133.721591,18.4261364 133.721591,16.4403409 C133.721591,14.4289773 134.111506,12.662642 134.891335,11.1413352 C135.671165,9.62002841 136.78125,8.43110795 138.221591,7.57457386 C139.661932,6.71803977 141.375,6.28977273 143.360795,6.28977273 C145.073864,6.28977273 146.573864,6.60085227 147.860795,7.22301136 C149.147727,7.84517045 150.166193,8.71875 150.916193,9.84375 C151.666193,10.96875 152.079545,12.2897727 152.15625,13.8068182 L147.017045,13.8068182 C146.872159,12.8267045 146.490767,12.0362216 145.872869,11.4353693 C145.254972,10.834517 144.447443,10.5340909 143.450284,10.5340909 C142.606534,10.5340909 141.871449,10.7620739 141.245028,11.2180398 C140.618608,11.6740057 140.130682,12.3366477 139.78125,13.2059659 C139.431818,14.0752841 139.257102,15.1278409 139.257102,16.3636364 C139.257102,17.6164773 139.429687,18.6818182 139.774858,19.5596591 C140.120028,20.4375 140.607955,21.1065341 141.238636,21.5667614 C141.869318,22.0269886 142.606534,22.2571023 143.450284,22.2571023 C144.072443,22.2571023 144.632812,22.1292614 145.131392,21.8735795 C145.629972,21.6178977 146.043324,21.2450284 146.371449,20.7549716 C146.699574,20.2649148 146.914773,19.6747159 147.017045,18.984375 L152.15625,18.984375 C152.071023,20.484375 151.664062,21.803267 150.935369,22.9410511 C150.206676,24.0788352 149.203125,24.9673295 147.924716,25.6065341 C146.646307,26.2457386 145.133523,26.5653409 143.386364,26.5653409 Z" id="Path"></path>
                    </g>
                </g>
                <g id="liblab-config-file" transform="translate(0, 138)">
                    <rect id="Rectangle-Copy-2" stroke="#FFFFFF" stroke-width="2" x="1" y="1" width="325" height="79" rx="27"></rect>
                    <g transform="translate(26.1733, 26.3224)" fill="#FFFFFF" fill-rule="nonzero">
                        <polygon id="Path" points="5.44602273 1.49573864 5.44602273 27.6775568 0 27.6775568 0 1.49573864"></polygon>
                        <path d="M9.79261364,27.6775568 L9.79261364,8.04119318 L15.2386364,8.04119318 L15.2386364,27.6775568 L9.79261364,27.6775568 Z M12.5284091,5.50994318 C11.71875,5.50994318 11.0262784,5.23934659 10.4509943,4.69815341 C9.87571023,4.15696023 9.58806818,3.50710227 9.58806818,2.74857955 C9.58806818,1.99857955 9.87571023,1.35298295 10.4509943,0.811789773 C11.0262784,0.270596591 11.71875,0 12.5284091,0 C13.3380682,0 14.0305398,0.270596591 14.6058239,0.811789773 C15.181108,1.35298295 15.46875,1.99857955 15.46875,2.74857955 C15.46875,3.50710227 15.181108,4.15696023 14.6058239,4.69815341 C14.0305398,5.23934659 13.3380682,5.50994318 12.5284091,5.50994318 Z" id="Shape"></path>
                        <path d="M19.6875,27.6775568 L19.6875,1.49573864 L25.1335227,1.49573864 L25.1335227,11.3394886 L25.2997159,11.3394886 C25.5383523,10.8110795 25.8856534,10.272017 26.3416193,9.72230114 C26.7975852,9.17258523 27.3941761,8.71235795 28.131392,8.34161932 C28.868608,7.97088068 29.7869318,7.78551136 30.8863636,7.78551136 C32.3181818,7.78551136 33.6392045,8.15838068 34.8494318,8.90411932 C36.0596591,9.64985795 37.0269886,10.7705966 37.7514205,12.2663352 C38.4758523,13.7620739 38.8380682,15.6349432 38.8380682,17.8849432 C38.8380682,20.0752841 38.4865057,21.9225852 37.7833807,23.4268466 C37.0802557,24.931108 36.1257102,26.068892 34.9197443,26.8401989 C33.7137784,27.6115057 32.3650568,27.9971591 30.8735795,27.9971591 C29.8167614,27.9971591 28.9197443,27.8224432 28.1825284,27.4730114 C27.4453125,27.1235795 26.8423295,26.6825284 26.3735795,26.149858 C25.9048295,25.6171875 25.546875,25.078125 25.2997159,24.5326705 L25.0568182,24.5326705 L25.0568182,27.6775568 L19.6875,27.6775568 Z M25.0184659,17.859375 C25.0184659,19.0269886 25.1803977,20.0454545 25.5042614,20.9147727 C25.828125,21.7840909 26.296875,22.459517 26.9105114,22.9410511 C27.5241477,23.4225852 28.2698864,23.6633523 29.1477273,23.6633523 C30.0340909,23.6633523 30.7840909,23.4183239 31.3977273,22.928267 C32.0113636,22.4382102 32.477983,21.756392 32.7975852,20.8828125 C33.1171875,20.009233 33.2769886,19.0014205 33.2769886,17.859375 C33.2769886,16.7258523 33.1193182,15.7286932 32.8039773,14.8678977 C32.4886364,14.0071023 32.0241477,13.3338068 31.4105114,12.8480114 C30.796875,12.3622159 30.0426136,12.1193182 29.1477273,12.1193182 C28.2613636,12.1193182 27.5134943,12.3536932 26.9041193,12.8224432 C26.2947443,13.2911932 25.828125,13.9559659 25.5042614,14.8167614 C25.1803977,15.6775568 25.0184659,16.6917614 25.0184659,17.859375 Z" id="Shape"></path>
                        <polygon id="Path" points="47.9019886 1.49573864 47.9019886 27.6775568 42.4559659 27.6775568 42.4559659 1.49573864"></polygon>
                        <path d="M57.8480114,28.0482955 C56.5951705,28.0482955 55.4786932,27.8288352 54.4985795,27.3899148 C53.5184659,26.9509943 52.7450284,26.2990057 52.178267,25.4339489 C51.6115057,24.568892 51.328125,23.4886364 51.328125,22.1931818 C51.328125,21.1022727 51.5284091,20.1860795 51.9289773,19.4446023 C52.3295455,18.703125 52.875,18.1065341 53.5653409,17.6548295 C54.2556818,17.203125 55.0419034,16.8622159 55.9240057,16.6321023 C56.806108,16.4019886 57.7329545,16.2400568 58.7045455,16.1463068 C59.8465909,16.0269886 60.7670455,15.9140625 61.4659091,15.8075284 C62.1647727,15.7009943 62.671875,15.5411932 62.9872159,15.328125 C63.3025568,15.1150568 63.4602273,14.7997159 63.4602273,14.3821023 L63.4602273,14.3053977 C63.4602273,13.4957386 63.2066761,12.8693182 62.6995739,12.4261364 C62.1924716,11.9829545 61.4744318,11.7613636 60.5454545,11.7613636 C59.5653409,11.7613636 58.7855114,11.9765625 58.2059659,12.4069602 C57.6264205,12.837358 57.2428977,13.3764205 57.0553977,14.0241477 L52.0184659,13.6150568 C52.2741477,12.421875 52.7769886,11.3884943 53.5269886,10.5149148 C54.2769886,9.64133523 55.2464489,8.96803977 56.4353693,8.49502841 C57.6242898,8.02201705 59.0028409,7.78551136 60.5710227,7.78551136 C61.6619318,7.78551136 62.7080966,7.91335227 63.709517,8.16903409 C64.7109375,8.42471591 65.6015625,8.82102273 66.381392,9.35795455 C67.1612216,9.89488636 67.7769886,10.5830966 68.2286932,11.4225852 C68.6803977,12.2620739 68.90625,13.265625 68.90625,14.4332386 L68.90625,27.6775568 L63.7414773,27.6775568 L63.7414773,24.9545455 L63.5880682,24.9545455 C63.2727273,25.5681818 62.8508523,26.1072443 62.3224432,26.571733 C61.7940341,27.0362216 61.1590909,27.3984375 60.4176136,27.6583807 C59.6761364,27.9183239 58.8196023,28.0482955 57.8480114,28.0482955 Z M59.4076705,24.2897727 C60.2088068,24.2897727 60.9161932,24.1299716 61.5298295,23.8103693 C62.1434659,23.490767 62.625,23.0582386 62.9744318,22.5127841 C63.3238636,21.9673295 63.4985795,21.3494318 63.4985795,20.6590909 L63.4985795,18.5752841 C63.328125,18.6860795 63.0958807,18.7862216 62.8018466,18.8757102 C62.5078125,18.9651989 62.1775568,19.0461648 61.8110795,19.118608 C61.4446023,19.1910511 61.078125,19.2549716 60.7116477,19.3103693 C60.3451705,19.365767 60.0127841,19.4147727 59.7144886,19.4573864 C59.0752841,19.5511364 58.5170455,19.7002841 58.0397727,19.9048295 C57.5625,20.109375 57.1917614,20.384233 56.9275568,20.7294034 C56.6633523,21.0745739 56.53125,21.5028409 56.53125,22.0142045 C56.53125,22.7556818 56.8018466,23.3203125 57.3430398,23.7080966 C57.884233,24.0958807 58.5724432,24.2897727 59.4076705,24.2897727 Z" id="Shape"></path>
                        <path d="M73.2400568,27.6775568 L73.2400568,1.49573864 L78.6860795,1.49573864 L78.6860795,11.3394886 L78.8522727,11.3394886 C79.0909091,10.8110795 79.4382102,10.272017 79.8941761,9.72230114 C80.350142,9.17258523 80.946733,8.71235795 81.6839489,8.34161932 C82.4211648,7.97088068 83.3394886,7.78551136 84.4389205,7.78551136 C85.8707386,7.78551136 87.1917614,8.15838068 88.4019886,8.90411932 C89.6122159,9.64985795 90.5795455,10.7705966 91.3039773,12.2663352 C92.0284091,13.7620739 92.390625,15.6349432 92.390625,17.8849432 C92.390625,20.0752841 92.0390625,21.9225852 91.3359375,23.4268466 C90.6328125,24.931108 89.678267,26.068892 88.4723011,26.8401989 C87.2663352,27.6115057 85.9176136,27.9971591 84.4261364,27.9971591 C83.3693182,27.9971591 82.4723011,27.8224432 81.7350852,27.4730114 C80.9978693,27.1235795 80.3948864,26.6825284 79.9261364,26.149858 C79.4573864,25.6171875 79.0994318,25.078125 78.8522727,24.5326705 L78.609375,24.5326705 L78.609375,27.6775568 L73.2400568,27.6775568 Z M78.5710227,17.859375 C78.5710227,19.0269886 78.7329545,20.0454545 79.0568182,20.9147727 C79.3806818,21.7840909 79.8494318,22.459517 80.4630682,22.9410511 C81.0767045,23.4225852 81.8224432,23.6633523 82.7002841,23.6633523 C83.5866477,23.6633523 84.3366477,23.4183239 84.9502841,22.928267 C85.5639205,22.4382102 86.0305398,21.756392 86.350142,20.8828125 C86.6697443,20.009233 86.8295455,19.0014205 86.8295455,17.859375 C86.8295455,16.7258523 86.671875,15.7286932 86.3565341,14.8678977 C86.0411932,14.0071023 85.5767045,13.3338068 84.9630682,12.8480114 C84.3494318,12.3622159 83.5951705,12.1193182 82.7002841,12.1193182 C81.8139205,12.1193182 81.0660511,12.3536932 80.4566761,12.8224432 C79.8473011,13.2911932 79.3806818,13.9559659 79.0568182,14.8167614 C78.7329545,15.6775568 78.5710227,16.6917614 78.5710227,17.859375 Z" id="Shape"></path>
                        <path d="M113.228693,28.0610795 C111.21733,28.0610795 109.489347,27.6328125 108.044744,26.7762784 C106.600142,25.9197443 105.492187,24.7286932 104.720881,23.203125 C103.949574,21.6775568 103.56392,19.921875 103.56392,17.9360795 C103.56392,15.9247159 103.953835,14.1583807 104.733665,12.6370739 C105.513494,11.115767 106.62358,9.92684659 108.06392,9.0703125 C109.504261,8.21377841 111.21733,7.78551136 113.203125,7.78551136 C114.916193,7.78551136 116.416193,8.09659091 117.703125,8.71875 C118.990057,9.34090909 120.008523,10.2144886 120.758523,11.3394886 C121.508523,12.4644886 121.921875,13.7855114 121.99858,15.3025568 L116.859375,15.3025568 C116.714489,14.3224432 116.333097,13.5319602 115.715199,12.931108 C115.097301,12.3302557 114.289773,12.0298295 113.292614,12.0298295 C112.448864,12.0298295 111.713778,12.2578125 111.087358,12.7137784 C110.460937,13.1697443 109.973011,13.8323864 109.62358,14.7017045 C109.274148,15.5710227 109.099432,16.6235795 109.099432,17.859375 C109.099432,19.1122159 109.272017,20.1775568 109.617187,21.0553977 C109.962358,21.9332386 110.450284,22.6022727 111.080966,23.0625 C111.711648,23.5227273 112.448864,23.7528409 113.292614,23.7528409 C113.914773,23.7528409 114.475142,23.625 114.973722,23.3693182 C115.472301,23.1136364 115.885653,22.740767 116.213778,22.2507102 C116.541903,21.7606534 116.757102,21.1704545 116.859375,20.4801136 L121.99858,20.4801136 C121.913352,21.9801136 121.506392,23.2990057 120.777699,24.4367898 C120.049006,25.5745739 119.045455,26.4630682 117.767045,27.1022727 C116.488636,27.7414773 114.975852,28.0610795 113.228693,28.0610795 Z" id="Path"></path>
                        <path d="M134.37358,28.0610795 C132.387784,28.0610795 130.672585,27.6370739 129.227983,26.7890625 C127.783381,25.9410511 126.669034,24.756392 125.884943,23.2350852 C125.100852,21.7137784 124.708807,19.9474432 124.708807,17.9360795 C124.708807,15.9076705 125.100852,14.1328125 125.884943,12.6115057 C126.669034,11.0901989 127.783381,9.90553977 129.227983,9.05752841 C130.672585,8.20951705 132.387784,7.78551136 134.37358,7.78551136 C136.359375,7.78551136 138.074574,8.20951705 139.519176,9.05752841 C140.963778,9.90553977 142.078125,11.0901989 142.862216,12.6115057 C143.646307,14.1328125 144.038352,15.9076705 144.038352,17.9360795 C144.038352,19.9474432 143.646307,21.7137784 142.862216,23.2350852 C142.078125,24.756392 140.963778,25.9410511 139.519176,26.7890625 C138.074574,27.6370739 136.359375,28.0610795 134.37358,28.0610795 Z M134.399148,23.8423295 C135.302557,23.8423295 136.056818,23.584517 136.661932,23.068892 C137.267045,22.553267 137.725142,21.8480114 138.036222,20.953125 C138.347301,20.0582386 138.502841,19.0397727 138.502841,17.8977273 C138.502841,16.7556818 138.347301,15.7372159 138.036222,14.8423295 C137.725142,13.9474432 137.267045,13.2400568 136.661932,12.7201705 C136.056818,12.2002841 135.302557,11.9403409 134.399148,11.9403409 C133.487216,11.9403409 132.722301,12.2002841 132.104403,12.7201705 C131.486506,13.2400568 131.022017,13.9474432 130.710937,14.8423295 C130.399858,15.7372159 130.244318,16.7556818 130.244318,17.8977273 C130.244318,19.0397727 130.399858,20.0582386 130.710937,20.953125 C131.022017,21.8480114 131.486506,22.553267 132.104403,23.068892 C132.722301,23.584517 133.487216,23.8423295 134.399148,23.8423295 Z" id="Shape"></path>
                        <path d="M153.038352,16.3252841 L153.038352,27.6775568 L147.59233,27.6775568 L147.59233,8.04119318 L152.78267,8.04119318 L152.78267,11.5056818 L153.012784,11.5056818 C153.447443,10.3636364 154.176136,9.45809659 155.198864,8.7890625 C156.221591,8.12002841 157.461648,7.78551136 158.919034,7.78551136 C160.28267,7.78551136 161.471591,8.08380682 162.485795,8.68039773 C163.5,9.27698864 164.288352,10.1271307 164.850852,11.2308239 C165.413352,12.334517 165.694602,13.6491477 165.694602,15.1747159 L165.694602,27.6775568 L160.24858,27.6775568 L160.24858,16.1463068 C160.257102,14.9446023 159.950284,14.0049716 159.328125,13.3274148 C158.705966,12.649858 157.849432,12.3110795 156.758523,12.3110795 C156.025568,12.3110795 155.379972,12.46875 154.821733,12.7840909 C154.263494,13.0994318 153.828835,13.5575284 153.517756,14.1583807 C153.206676,14.759233 153.046875,15.4815341 153.038352,16.3252841 Z" id="Path"></path>
                        <path d="M180.536932,8.04119318 L180.536932,12.1321023 L168.417614,12.1321023 L168.417614,8.04119318 L180.536932,8.04119318 Z M171.191761,27.6775568 L171.191761,6.62215909 C171.191761,5.19886364 171.470881,4.01846591 172.029119,3.08096591 C172.587358,2.14346591 173.352273,1.44034091 174.323864,0.971590909 C175.295455,0.502840909 176.399148,0.268465909 177.634943,0.268465909 C178.47017,0.268465909 179.235085,0.332386364 179.929687,0.460227273 C180.62429,0.588068182 181.142045,0.703125 181.482955,0.805397727 L180.511364,4.89630682 C180.298295,4.828125 180.036222,4.76420455 179.725142,4.70454545 C179.414062,4.64488636 179.096591,4.61505682 178.772727,4.61505682 C177.971591,4.61505682 177.413352,4.80042614 177.098011,5.17116477 C176.78267,5.54190341 176.625,6.05965909 176.625,6.72443182 L176.625,27.6775568 L171.191761,27.6775568 Z" id="Shape"></path>
                        <path d="M183.860795,27.6775568 L183.860795,8.04119318 L189.306818,8.04119318 L189.306818,27.6775568 L183.860795,27.6775568 Z M186.596591,5.50994318 C185.786932,5.50994318 185.09446,5.23934659 184.519176,4.69815341 C183.943892,4.15696023 183.65625,3.50710227 183.65625,2.74857955 C183.65625,1.99857955 183.943892,1.35298295 184.519176,0.811789773 C185.09446,0.270596591 185.786932,0 186.596591,0 C187.40625,0 188.098722,0.270596591 188.674006,0.811789773 C189.24929,1.35298295 189.536932,1.99857955 189.536932,2.74857955 C189.536932,3.50710227 189.24929,4.15696023 188.674006,4.69815341 C188.098722,5.23934659 187.40625,5.50994318 186.596591,5.50994318 Z" id="Shape"></path>
                        <path d="M202.5,35.4502841 C200.735795,35.4502841 199.225142,35.209517 197.96804,34.727983 C196.710937,34.2464489 195.711648,33.5923295 194.97017,32.765625 C194.228693,31.9389205 193.747159,31.0099432 193.525568,29.9786932 L198.5625,29.3011364 C198.715909,29.6931818 198.958807,30.0596591 199.291193,30.4005682 C199.62358,30.7414773 200.064631,31.0163352 200.614347,31.225142 C201.164062,31.4339489 201.835227,31.5383523 202.627841,31.5383523 C203.8125,31.5383523 204.790483,31.2507102 205.56179,30.6754261 C206.333097,30.100142 206.71875,29.1392045 206.71875,27.7926136 L206.71875,24.2002841 L206.488636,24.2002841 C206.25,24.7457386 205.892045,25.2613636 205.414773,25.7471591 C204.9375,26.2329545 204.323864,26.6292614 203.573864,26.9360795 C202.823864,27.2428977 201.928977,27.3963068 200.889205,27.3963068 C199.414773,27.3963068 198.074574,27.053267 196.868608,26.3671875 C195.662642,25.681108 194.703835,24.6285511 193.992187,23.209517 C193.28054,21.790483 192.924716,19.9943182 192.924716,17.8210227 C192.924716,15.5965909 193.286932,13.7386364 194.011364,12.2471591 C194.735795,10.7556818 195.700994,9.63920455 196.90696,8.89772727 C198.112926,8.15625 199.43608,7.78551136 200.87642,7.78551136 C201.975852,7.78551136 202.896307,7.97088068 203.637784,8.34161932 C204.379261,8.71235795 204.977983,9.17258523 205.433949,9.72230114 C205.889915,10.272017 206.241477,10.8110795 206.488636,11.3394886 L206.693182,11.3394886 L206.693182,8.04119318 L212.100852,8.04119318 L212.100852,27.8693182 C212.100852,29.5397727 211.691761,30.9375 210.87358,32.0625 C210.055398,33.1875 208.924006,34.0333807 207.479403,34.600142 C206.034801,35.1669034 204.375,35.4502841 202.5,35.4502841 Z M202.615057,23.3053977 C203.492898,23.3053977 204.236506,23.0859375 204.845881,22.647017 C205.455256,22.2080966 205.924006,21.5774148 206.252131,20.7549716 C206.580256,19.9325284 206.744318,18.9460227 206.744318,17.7954545 C206.744318,16.6448864 206.582386,15.6455966 206.258523,14.7975852 C205.934659,13.9495739 205.465909,13.2911932 204.852273,12.8224432 C204.238636,12.3536932 203.492898,12.1193182 202.615057,12.1193182 C201.72017,12.1193182 200.965909,12.3600852 200.352273,12.8416193 C199.738636,13.3231534 199.274148,13.9900568 198.958807,14.8423295 C198.643466,15.6946023 198.485795,16.6789773 198.485795,17.7954545 C198.485795,18.9289773 198.645597,19.9069602 198.965199,20.7294034 C199.284801,21.5518466 199.74929,22.1867898 200.358665,22.634233 C200.96804,23.0816761 201.72017,23.3053977 202.615057,23.3053977 Z" id="Shape"></path>
                        <path d="M235.355114,8.04119318 L235.355114,12.1321023 L223.235795,12.1321023 L223.235795,8.04119318 L235.355114,8.04119318 Z M226.009943,27.6775568 L226.009943,6.62215909 C226.009943,5.19886364 226.289063,4.01846591 226.847301,3.08096591 C227.40554,2.14346591 228.170455,1.44034091 229.142045,0.971590909 C230.113636,0.502840909 231.21733,0.268465909 232.453125,0.268465909 C233.288352,0.268465909 234.053267,0.332386364 234.747869,0.460227273 C235.442472,0.588068182 235.960227,0.703125 236.301136,0.805397727 L235.329545,4.89630682 C235.116477,4.828125 234.854403,4.76420455 234.543324,4.70454545 C234.232244,4.64488636 233.914773,4.61505682 233.590909,4.61505682 C232.789773,4.61505682 232.231534,4.80042614 231.916193,5.17116477 C231.600852,5.54190341 231.443182,6.05965909 231.443182,6.72443182 L231.443182,27.6775568 L226.009943,27.6775568 Z" id="Shape"></path>
                        <path d="M238.678977,27.6775568 L238.678977,8.04119318 L244.125,8.04119318 L244.125,27.6775568 L238.678977,27.6775568 Z M241.414773,5.50994318 C240.605114,5.50994318 239.912642,5.23934659 239.337358,4.69815341 C238.762074,4.15696023 238.474432,3.50710227 238.474432,2.74857955 C238.474432,1.99857955 238.762074,1.35298295 239.337358,0.811789773 C239.912642,0.270596591 240.605114,0 241.414773,0 C242.224432,0 242.916903,0.270596591 243.492188,0.811789773 C244.067472,1.35298295 244.355114,1.99857955 244.355114,2.74857955 C244.355114,3.50710227 244.067472,4.15696023 243.492188,4.69815341 C242.916903,5.23934659 242.224432,5.50994318 241.414773,5.50994318 Z" id="Shape"></path>
                        <polygon id="Path" points="253.917614 1.49573864 253.917614 27.6775568 248.471591 27.6775568 248.471591 1.49573864"></polygon>
                        <path d="M267.213068,28.0610795 C265.193182,28.0610795 263.456676,27.649858 262.003551,26.8274148 C260.550426,26.0049716 259.431818,24.837358 258.647727,23.3245739 C257.863636,21.8117898 257.471591,20.0198864 257.471591,17.9488636 C257.471591,15.9289773 257.863636,14.15625 258.647727,12.6306818 C259.431818,11.1051136 260.537642,9.91619318 261.965199,9.06392045 C263.392756,8.21164773 265.069602,7.78551136 266.995739,7.78551136 C268.291193,7.78551136 269.49929,7.9921875 270.620028,8.40553977 C271.740767,8.81889205 272.720881,9.43892045 273.560369,10.265625 C274.399858,11.0923295 275.053977,12.1299716 275.522727,13.3785511 C275.991477,14.6271307 276.225852,16.0866477 276.225852,17.7571023 L276.225852,19.2528409 L259.644886,19.2528409 L259.644886,15.8778409 L271.099432,15.8778409 C271.099432,15.09375 270.928977,14.3991477 270.588068,13.7940341 C270.247159,13.1889205 269.776278,12.7137784 269.175426,12.368608 C268.574574,12.0234375 267.877841,11.8508523 267.085227,11.8508523 C266.258523,11.8508523 265.527699,12.040483 264.892756,12.4197443 C264.257812,12.7990057 263.761364,13.306108 263.403409,13.9410511 C263.045455,14.5759943 262.862216,15.28125 262.853693,16.0568182 L262.853693,19.265625 C262.853693,20.2372159 263.034801,21.0767045 263.397017,21.7840909 C263.759233,22.4914773 264.272727,23.0369318 264.9375,23.4204545 C265.602273,23.8039773 266.390625,23.9957386 267.302557,23.9957386 C267.90767,23.9957386 268.461648,23.9105114 268.964489,23.7400568 C269.46733,23.5696023 269.897727,23.3139205 270.255682,22.9730114 C270.613636,22.6321023 270.886364,22.2144886 271.073864,21.7201705 L276.110795,22.0525568 C275.855114,23.2627841 275.333097,24.3174716 274.544744,25.2166193 C273.756392,26.115767 272.742187,26.8146307 271.502131,27.3132102 C270.262074,27.8117898 268.832386,28.0610795 267.213068,28.0610795 Z" id="Path"></path>
                    </g>
                </g>
                <g id="sdk" transform="translate(769, 0)">
                    <rect id="Rectangle-Copy-2" stroke="#FFFFFF" stroke-width="2" x="1" y="1" width="325" height="79" rx="27"></rect>
                    <g id="SDKs" transform="translate(118.0284, 27.4602)" fill="#FFFFFF" fill-rule="nonzero">
                        <path d="M15.046875,7.88778409 C14.9446023,6.85653409 14.5056818,6.05539773 13.7301136,5.484375 C12.9545455,4.91335227 11.9019886,4.62784091 10.5724432,4.62784091 C9.66903409,4.62784091 8.90625,4.75355114 8.28409091,5.00497159 C7.66193182,5.25639205 7.18678977,5.60369318 6.85866477,6.046875 C6.53053977,6.49005682 6.36647727,6.99289773 6.36647727,7.55539773 C6.34943182,8.02414773 6.44957386,8.43323864 6.66690341,8.78267045 C6.88423295,9.13210227 7.18465909,9.43252841 7.56818182,9.68394886 C7.95170455,9.93536932 8.39488636,10.1526989 8.89772727,10.3359375 C9.40056818,10.5191761 9.9375,10.6747159 10.5085227,10.8025568 L12.8607955,11.3650568 C14.0028409,11.6207386 15.0511364,11.9616477 16.0056818,12.3877841 C16.9602273,12.8139205 17.7869318,13.3380682 18.4857955,13.9602273 C19.1846591,14.5823864 19.727983,15.3153409 20.115767,16.1590909 C20.5035511,17.0028409 20.7017045,17.9701705 20.7102273,19.0610795 C20.7017045,20.6633523 20.2947443,22.0504261 19.4893466,23.2223011 C18.6839489,24.3941761 17.524858,25.3018466 16.0120739,25.9453125 C14.4992898,26.5887784 12.6775568,26.9105114 10.546875,26.9105114 C8.43323864,26.9105114 6.59446023,26.5866477 5.03053977,25.9389205 C3.46661932,25.2911932 2.24786932,24.3302557 1.37428977,23.056108 C0.500710227,21.7819602 0.0426136364,20.203125 0,18.3196023 L5.35653409,18.3196023 C5.41619318,19.1974432 5.66974432,19.928267 6.1171875,20.5120739 C6.56463068,21.0958807 7.16548295,21.5348011 7.91974432,21.8288352 C8.67400568,22.1228693 9.52840909,22.2698864 10.4829545,22.2698864 C11.4204545,22.2698864 12.2365057,22.1335227 12.931108,21.8607955 C13.6257102,21.5880682 14.1647727,21.2088068 14.5482955,20.7230114 C14.9318182,20.2372159 15.1235795,19.6789773 15.1235795,19.0482955 C15.1235795,18.4602273 14.9509943,17.9659091 14.6058239,17.5653409 C14.2606534,17.1647727 13.7578125,16.8238636 13.0973011,16.5426136 C12.4367898,16.2613636 11.6292614,16.0056818 10.6747159,15.7755682 L7.82386364,15.0596591 C5.61647727,14.5227273 3.87357955,13.6832386 2.59517045,12.5411932 C1.31676136,11.3991477 0.681818182,9.86079545 0.690340909,7.92613636 C0.681818182,6.34090909 1.10582386,4.95596591 1.96235795,3.77130682 C2.81889205,2.58664773 3.99715909,1.66193182 5.49715909,0.997159091 C6.99715909,0.332386364 8.70170455,0 10.6107955,0 C12.5539773,0 14.2521307,0.332386364 15.7052557,0.997159091 C17.1583807,1.66193182 18.2897727,2.58664773 19.0994318,3.77130682 C19.9090909,4.95596591 20.3267045,6.328125 20.3522727,7.88778409 L15.046875,7.88778409 Z" id="Path"></path>
                        <path d="M33.6988636,26.5397727 L24.4176136,26.5397727 L24.4176136,0.357954545 L33.7755682,0.357954545 C36.4090909,0.357954545 38.6761364,0.879971591 40.5767045,1.92400568 C42.4772727,2.96803977 43.9410511,4.46590909 44.9680398,6.41761364 C45.9950284,8.36931818 46.5085227,10.7045455 46.5085227,13.4232955 C46.5085227,16.1505682 45.9950284,18.4943182 44.9680398,20.4545455 C43.9410511,22.4147727 42.4708807,23.9190341 40.5575284,24.9673295 C38.6441761,26.015625 36.3579545,26.5397727 33.6988636,26.5397727 Z M29.953125,21.796875 L33.46875,21.796875 C35.1051136,21.796875 36.4836648,21.5049716 37.6044034,20.9211648 C38.725142,20.337358 39.568892,19.4296875 40.1356534,18.1981534 C40.7024148,16.9666193 40.9857955,15.375 40.9857955,13.4232955 C40.9857955,11.4886364 40.7024148,9.90767045 40.1356534,8.68039773 C39.568892,7.453125 38.7272727,6.54971591 37.6107955,5.97017045 C36.4943182,5.390625 35.1178977,5.10085227 33.4815341,5.10085227 L29.953125,5.10085227 L29.953125,21.796875 Z" id="Shape"></path>
                        <polygon id="Path" points="50.5994318 26.5397727 50.5994318 0.357954545 56.1349432 0.357954545 56.1349432 11.9019886 56.4801136 11.9019886 65.9019886 0.357954545 72.5369318 0.357954545 62.8210227 12.0809659 72.6519886 26.5397727 66.0298295 26.5397727 58.8579545 15.7755682 56.1349432 19.0994318 56.1349432 26.5397727"></polygon>
                        <path d="M91.6619318,12.5028409 L86.6761364,12.8096591 C86.5909091,12.3835227 86.4076705,11.9978693 86.1264205,11.6526989 C85.8451705,11.3075284 85.4765625,11.0305398 85.0205966,10.821733 C84.5646307,10.6129261 84.0213068,10.5085227 83.390625,10.5085227 C82.546875,10.5085227 81.8352273,10.6853693 81.2556818,11.0390625 C80.6761364,11.3927557 80.3863636,11.8636364 80.3863636,12.4517045 C80.3863636,12.9204545 80.5738636,13.3167614 80.9488636,13.640625 C81.3238636,13.9644886 81.9673295,14.2244318 82.8792614,14.4204545 L86.4332386,15.1363636 C88.3423295,15.5284091 89.765625,16.1590909 90.703125,17.0284091 C91.640625,17.8977273 92.109375,19.0397727 92.109375,20.4545455 C92.109375,21.7414773 91.7322443,22.8707386 90.977983,23.8423295 C90.2237216,24.8139205 89.1924716,25.5703125 87.884233,26.1115057 C86.5759943,26.6526989 85.0696023,26.9232955 83.3650568,26.9232955 C80.765625,26.9232955 78.696733,26.3799716 77.1583807,25.2933239 C75.6200284,24.2066761 74.71875,22.7258523 74.4545455,20.8508523 L79.8110795,20.5696023 C79.9730114,21.3622159 80.3650568,21.9651989 80.9872159,22.3785511 C81.609375,22.7919034 82.40625,22.9985795 83.3778409,22.9985795 C84.3323864,22.9985795 85.1015625,22.8132102 85.6853693,22.4424716 C86.2691761,22.071733 86.5653409,21.5923295 86.5738636,21.0042614 C86.5653409,20.5099432 86.3565341,20.102983 85.9474432,19.7833807 C85.5383523,19.4637784 84.9076705,19.21875 84.0553977,19.0482955 L80.6548295,18.3707386 C78.7372159,17.9872159 77.3117898,17.3224432 76.3785511,16.3764205 C75.4453125,15.4303977 74.9786932,14.2244318 74.9786932,12.7585227 C74.9786932,11.4971591 75.321733,10.4105114 76.0078125,9.49857955 C76.693892,8.58664773 77.6612216,7.88352273 78.9098011,7.38920455 C80.1583807,6.89488636 81.6221591,6.64772727 83.3011364,6.64772727 C85.78125,6.64772727 87.7350852,7.171875 89.162642,8.22017045 C90.5901989,9.26846591 91.4232955,10.6960227 91.6619318,12.5028409 Z" id="Path"></path>
                    </g>
                </g>
                <g id="documentation" transform="translate(769, 138)">
                    <rect id="Rectangle-Copy-3" stroke="#FFFFFF" stroke-width="2" x="1" y="1" width="325" height="79" rx="27"></rect>
                    <g id="Documentation" transform="translate(30.4446, 26.3224)" fill="#FFFFFF" fill-rule="nonzero">
                        <path d="M9.28125,27.6775568 L0,27.6775568 L0,1.49573864 L9.35795455,1.49573864 C11.9914773,1.49573864 14.2585227,2.01775568 16.1590909,3.06178977 C18.0596591,4.10582386 19.5234375,5.60369318 20.5504261,7.55539773 C21.5774148,9.50710227 22.0909091,11.8423295 22.0909091,14.5610795 C22.0909091,17.2883523 21.5774148,19.6321023 20.5504261,21.5923295 C19.5234375,23.5525568 18.053267,25.0568182 16.1399148,26.1051136 C14.2265625,27.1534091 11.9403409,27.6775568 9.28125,27.6775568 Z M5.53551136,22.9346591 L9.05113636,22.9346591 C10.6875,22.9346591 12.0660511,22.6427557 13.1867898,22.0589489 C14.3075284,21.475142 15.1512784,20.5674716 15.7180398,19.3359375 C16.2848011,18.1044034 16.5681818,16.5127841 16.5681818,14.5610795 C16.5681818,12.6264205 16.2848011,11.0454545 15.7180398,9.81818182 C15.1512784,8.59090909 14.3096591,7.6875 13.1931818,7.10795455 C12.0767045,6.52840909 10.7002841,6.23863636 9.06392045,6.23863636 L5.53551136,6.23863636 L5.53551136,22.9346591 Z" id="Shape"></path>
                        <path d="M34.9517045,28.0610795 C32.9659091,28.0610795 31.2507102,27.6370739 29.806108,26.7890625 C28.3615057,25.9410511 27.2471591,24.756392 26.4630682,23.2350852 C25.6789773,21.7137784 25.2869318,19.9474432 25.2869318,17.9360795 C25.2869318,15.9076705 25.6789773,14.1328125 26.4630682,12.6115057 C27.2471591,11.0901989 28.3615057,9.90553977 29.806108,9.05752841 C31.2507102,8.20951705 32.9659091,7.78551136 34.9517045,7.78551136 C36.9375,7.78551136 38.6526989,8.20951705 40.0973011,9.05752841 C41.5419034,9.90553977 42.65625,11.0901989 43.4403409,12.6115057 C44.2244318,14.1328125 44.6164773,15.9076705 44.6164773,17.9360795 C44.6164773,19.9474432 44.2244318,21.7137784 43.4403409,23.2350852 C42.65625,24.756392 41.5419034,25.9410511 40.0973011,26.7890625 C38.6526989,27.6370739 36.9375,28.0610795 34.9517045,28.0610795 Z M34.9772727,23.8423295 C35.8806818,23.8423295 36.6349432,23.584517 37.2400568,23.068892 C37.8451705,22.553267 38.303267,21.8480114 38.6143466,20.953125 C38.9254261,20.0582386 39.0809659,19.0397727 39.0809659,17.8977273 C39.0809659,16.7556818 38.9254261,15.7372159 38.6143466,14.8423295 C38.303267,13.9474432 37.8451705,13.2400568 37.2400568,12.7201705 C36.6349432,12.2002841 35.8806818,11.9403409 34.9772727,11.9403409 C34.0653409,11.9403409 33.3004261,12.2002841 32.6825284,12.7201705 C32.0646307,13.2400568 31.600142,13.9474432 31.2890625,14.8423295 C30.977983,15.7372159 30.8224432,16.7556818 30.8224432,17.8977273 C30.8224432,19.0397727 30.977983,20.0582386 31.2890625,20.953125 C31.600142,21.8480114 32.0646307,22.553267 32.6825284,23.068892 C33.3004261,23.584517 34.0653409,23.8423295 34.9772727,23.8423295 Z" id="Shape"></path>
                        <path d="M57.0426136,28.0610795 C55.03125,28.0610795 53.303267,27.6328125 51.8586648,26.7762784 C50.4140625,25.9197443 49.306108,24.7286932 48.5348011,23.203125 C47.7634943,21.6775568 47.3778409,19.921875 47.3778409,17.9360795 C47.3778409,15.9247159 47.7677557,14.1583807 48.5475852,12.6370739 C49.3274148,11.115767 50.4375,9.92684659 51.8778409,9.0703125 C53.3181818,8.21377841 55.03125,7.78551136 57.0170455,7.78551136 C58.7301136,7.78551136 60.2301136,8.09659091 61.5170455,8.71875 C62.8039773,9.34090909 63.8224432,10.2144886 64.5724432,11.3394886 C65.3224432,12.4644886 65.7357955,13.7855114 65.8125,15.3025568 L60.6732955,15.3025568 C60.5284091,14.3224432 60.147017,13.5319602 59.5291193,12.931108 C58.9112216,12.3302557 58.1036932,12.0298295 57.1065341,12.0298295 C56.2627841,12.0298295 55.5276989,12.2578125 54.9012784,12.7137784 C54.274858,13.1697443 53.7869318,13.8323864 53.4375,14.7017045 C53.0880682,15.5710227 52.9133523,16.6235795 52.9133523,17.859375 C52.9133523,19.1122159 53.0859375,20.1775568 53.431108,21.0553977 C53.7762784,21.9332386 54.2642045,22.6022727 54.8948864,23.0625 C55.5255682,23.5227273 56.2627841,23.7528409 57.1065341,23.7528409 C57.7286932,23.7528409 58.2890625,23.625 58.787642,23.3693182 C59.2862216,23.1136364 59.6995739,22.740767 60.0276989,22.2507102 C60.3558239,21.7606534 60.5710227,21.1704545 60.6732955,20.4801136 L65.8125,20.4801136 C65.7272727,21.9801136 65.3203125,23.2990057 64.5916193,24.4367898 C63.8629261,25.5745739 62.859375,26.4630682 61.5809659,27.1022727 C60.3025568,27.7414773 58.7897727,28.0610795 57.0426136,28.0610795 Z" id="Path"></path>
                        <path d="M81.9076705,19.3167614 L81.9076705,8.04119318 L87.3536932,8.04119318 L87.3536932,27.6775568 L82.125,27.6775568 L82.125,24.1107955 L81.9204545,24.1107955 C81.4772727,25.2613636 80.7421875,26.1860795 79.7151989,26.8849432 C78.6882102,27.5838068 77.4375,27.9332386 75.9630682,27.9332386 C74.6505682,27.9332386 73.4957386,27.6349432 72.4985795,27.0383523 C71.5014205,26.4417614 70.7237216,25.59375 70.165483,24.4943182 C69.6072443,23.3948864 69.3238636,22.078125 69.3153409,20.5440341 L69.3153409,8.04119318 L74.7613636,8.04119318 L74.7613636,19.5724432 C74.7698864,20.7315341 75.0809659,21.6477273 75.6946023,22.3210227 C76.3082386,22.9943182 77.1306818,23.3309659 78.1619318,23.3309659 C78.8181818,23.3309659 79.4318182,23.1796875 80.0028409,22.8771307 C80.5738636,22.5745739 81.0362216,22.125 81.3899148,21.5284091 C81.743608,20.9318182 81.9161932,20.1946023 81.9076705,19.3167614 Z" id="Path"></path>
                        <path d="M91.7002841,27.6775568 L91.7002841,8.04119318 L96.890625,8.04119318 L96.890625,11.5056818 L97.1207386,11.5056818 C97.5298295,10.3551136 98.2116477,9.44744318 99.1661932,8.78267045 C100.120739,8.11789773 101.262784,7.78551136 102.59233,7.78551136 C103.93892,7.78551136 105.085227,8.12002841 106.03125,8.7890625 C106.977273,9.45809659 107.607955,10.3636364 107.923295,11.5056818 L108.127841,11.5056818 C108.528409,10.3806818 109.254972,9.47940341 110.307528,8.80184659 C111.360085,8.12428977 112.606534,7.78551136 114.046875,7.78551136 C115.879261,7.78551136 117.368608,8.3671875 118.514915,9.53053977 C119.661222,10.693892 120.234375,12.3409091 120.234375,14.4715909 L120.234375,27.6775568 L114.801136,27.6775568 L114.801136,15.5454545 C114.801136,14.4545455 114.511364,13.6363636 113.931818,13.0909091 C113.352273,12.5454545 112.627841,12.2727273 111.758523,12.2727273 C110.769886,12.2727273 109.99858,12.5859375 109.444602,13.212358 C108.890625,13.8387784 108.613636,14.6633523 108.613636,15.6860795 L108.613636,27.6775568 L103.333807,27.6775568 L103.333807,15.4303977 C103.333807,14.4673295 103.058949,13.7002841 102.509233,13.1292614 C101.959517,12.5582386 101.237216,12.2727273 100.34233,12.2727273 C99.7372159,12.2727273 99.193892,12.4240057 98.712358,12.7265625 C98.2308239,13.0291193 97.8494318,13.4509943 97.5681818,13.9921875 C97.2869318,14.5333807 97.1463068,15.1661932 97.1463068,15.890625 L97.1463068,27.6775568 L91.7002841,27.6775568 Z" id="Path"></path>
                        <path d="M133.478693,28.0610795 C131.458807,28.0610795 129.722301,27.649858 128.269176,26.8274148 C126.816051,26.0049716 125.697443,24.837358 124.913352,23.3245739 C124.129261,21.8117898 123.737216,20.0198864 123.737216,17.9488636 C123.737216,15.9289773 124.129261,14.15625 124.913352,12.6306818 C125.697443,11.1051136 126.803267,9.91619318 128.230824,9.06392045 C129.658381,8.21164773 131.335227,7.78551136 133.261364,7.78551136 C134.556818,7.78551136 135.764915,7.9921875 136.885653,8.40553977 C138.006392,8.81889205 138.986506,9.43892045 139.825994,10.265625 C140.665483,11.0923295 141.319602,12.1299716 141.788352,13.3785511 C142.257102,14.6271307 142.491477,16.0866477 142.491477,17.7571023 L142.491477,19.2528409 L125.910511,19.2528409 L125.910511,15.8778409 L137.365057,15.8778409 C137.365057,15.09375 137.194602,14.3991477 136.853693,13.7940341 C136.512784,13.1889205 136.041903,12.7137784 135.441051,12.368608 C134.840199,12.0234375 134.143466,11.8508523 133.350852,11.8508523 C132.524148,11.8508523 131.793324,12.040483 131.158381,12.4197443 C130.523438,12.7990057 130.026989,13.306108 129.669034,13.9410511 C129.31108,14.5759943 129.127841,15.28125 129.119318,16.0568182 L129.119318,19.265625 C129.119318,20.2372159 129.300426,21.0767045 129.662642,21.7840909 C130.024858,22.4914773 130.538352,23.0369318 131.203125,23.4204545 C131.867898,23.8039773 132.65625,23.9957386 133.568182,23.9957386 C134.173295,23.9957386 134.727273,23.9105114 135.230114,23.7400568 C135.732955,23.5696023 136.163352,23.3139205 136.521307,22.9730114 C136.879261,22.6321023 137.151989,22.2144886 137.339489,21.7201705 L142.37642,22.0525568 C142.120739,23.2627841 141.598722,24.3174716 140.810369,25.2166193 C140.022017,26.115767 139.007813,26.8146307 137.767756,27.3132102 C136.527699,27.8117898 135.098011,28.0610795 133.478693,28.0610795 Z" id="Path"></path>
                        <path d="M151.491477,16.3252841 L151.491477,27.6775568 L146.045455,27.6775568 L146.045455,8.04119318 L151.235795,8.04119318 L151.235795,11.5056818 L151.465909,11.5056818 C151.900568,10.3636364 152.629261,9.45809659 153.651989,8.7890625 C154.674716,8.12002841 155.914773,7.78551136 157.372159,7.78551136 C158.735795,7.78551136 159.924716,8.08380682 160.93892,8.68039773 C161.953125,9.27698864 162.741477,10.1271307 163.303977,11.2308239 C163.866477,12.334517 164.147727,13.6491477 164.147727,15.1747159 L164.147727,27.6775568 L158.701705,27.6775568 L158.701705,16.1463068 C158.710227,14.9446023 158.403409,14.0049716 157.78125,13.3274148 C157.159091,12.649858 156.302557,12.3110795 155.211648,12.3110795 C154.478693,12.3110795 153.833097,12.46875 153.274858,12.7840909 C152.716619,13.0994318 152.28196,13.5575284 151.970881,14.1583807 C151.659801,14.759233 151.5,15.4815341 151.491477,16.3252841 Z" id="Path"></path>
                        <path d="M178.875,8.04119318 L178.875,12.1321023 L167.049716,12.1321023 L167.049716,8.04119318 L178.875,8.04119318 Z M169.734375,3.33664773 L175.180398,3.33664773 L175.180398,21.6434659 C175.180398,22.1463068 175.257102,22.5362216 175.410511,22.8132102 C175.56392,23.0901989 175.779119,23.2840909 176.056108,23.3948864 C176.333097,23.5056818 176.65483,23.5610795 177.021307,23.5610795 C177.276989,23.5610795 177.53267,23.537642 177.788352,23.490767 C178.044034,23.443892 178.240057,23.4076705 178.37642,23.3821023 L179.232955,27.4346591 C178.960227,27.5198864 178.576705,27.6200284 178.082386,27.7350852 C177.588068,27.850142 176.987216,27.9204545 176.27983,27.9460227 C174.96733,27.9971591 173.818892,27.8224432 172.834517,27.421875 C171.850142,27.0213068 171.085227,26.3991477 170.539773,25.5553977 C169.994318,24.7116477 169.725852,23.6463068 169.734375,22.359375 L169.734375,3.33664773 Z" id="Shape"></path>
                        <path d="M188.015625,28.0482955 C186.762784,28.0482955 185.646307,27.8288352 184.666193,27.3899148 C183.68608,26.9509943 182.912642,26.2990057 182.345881,25.4339489 C181.779119,24.568892 181.495739,23.4886364 181.495739,22.1931818 C181.495739,21.1022727 181.696023,20.1860795 182.096591,19.4446023 C182.497159,18.703125 183.042614,18.1065341 183.732955,17.6548295 C184.423295,17.203125 185.209517,16.8622159 186.091619,16.6321023 C186.973722,16.4019886 187.900568,16.2400568 188.872159,16.1463068 C190.014205,16.0269886 190.934659,15.9140625 191.633523,15.8075284 C192.332386,15.7009943 192.839489,15.5411932 193.15483,15.328125 C193.47017,15.1150568 193.627841,14.7997159 193.627841,14.3821023 L193.627841,14.3053977 C193.627841,13.4957386 193.37429,12.8693182 192.867188,12.4261364 C192.360085,11.9829545 191.642045,11.7613636 190.713068,11.7613636 C189.732955,11.7613636 188.953125,11.9765625 188.37358,12.4069602 C187.794034,12.837358 187.410511,13.3764205 187.223011,14.0241477 L182.18608,13.6150568 C182.441761,12.421875 182.944602,11.3884943 183.694602,10.5149148 C184.444602,9.64133523 185.414063,8.96803977 186.602983,8.49502841 C187.791903,8.02201705 189.170455,7.78551136 190.738636,7.78551136 C191.829545,7.78551136 192.87571,7.91335227 193.877131,8.16903409 C194.878551,8.42471591 195.769176,8.82102273 196.549006,9.35795455 C197.328835,9.89488636 197.944602,10.5830966 198.396307,11.4225852 C198.848011,12.2620739 199.073864,13.265625 199.073864,14.4332386 L199.073864,27.6775568 L193.909091,27.6775568 L193.909091,24.9545455 L193.755682,24.9545455 C193.440341,25.5681818 193.018466,26.1072443 192.490057,26.571733 C191.961648,27.0362216 191.326705,27.3984375 190.585227,27.6583807 C189.84375,27.9183239 188.987216,28.0482955 188.015625,28.0482955 Z M189.575284,24.2897727 C190.37642,24.2897727 191.083807,24.1299716 191.697443,23.8103693 C192.31108,23.490767 192.792614,23.0582386 193.142045,22.5127841 C193.491477,21.9673295 193.666193,21.3494318 193.666193,20.6590909 L193.666193,18.5752841 C193.495739,18.6860795 193.263494,18.7862216 192.96946,18.8757102 C192.675426,18.9651989 192.34517,19.0461648 191.978693,19.118608 C191.612216,19.1910511 191.245739,19.2549716 190.879261,19.3103693 C190.512784,19.365767 190.180398,19.4147727 189.882102,19.4573864 C189.242898,19.5511364 188.684659,19.7002841 188.207386,19.9048295 C187.730114,20.109375 187.359375,20.384233 187.09517,20.7294034 C186.830966,21.0745739 186.698864,21.5028409 186.698864,22.0142045 C186.698864,22.7556818 186.96946,23.3203125 187.510653,23.7080966 C188.051847,24.0958807 188.740057,24.2897727 189.575284,24.2897727 Z" id="Shape"></path>
                        <path d="M213.75,8.04119318 L213.75,12.1321023 L201.924716,12.1321023 L201.924716,8.04119318 L213.75,8.04119318 Z M204.609375,3.33664773 L210.055398,3.33664773 L210.055398,21.6434659 C210.055398,22.1463068 210.132102,22.5362216 210.285511,22.8132102 C210.43892,23.0901989 210.654119,23.2840909 210.931108,23.3948864 C211.208097,23.5056818 211.52983,23.5610795 211.896307,23.5610795 C212.151989,23.5610795 212.40767,23.537642 212.663352,23.490767 C212.919034,23.443892 213.115057,23.4076705 213.25142,23.3821023 L214.107955,27.4346591 C213.835227,27.5198864 213.451705,27.6200284 212.957386,27.7350852 C212.463068,27.850142 211.862216,27.9204545 211.15483,27.9460227 C209.84233,27.9971591 208.693892,27.8224432 207.709517,27.421875 C206.725142,27.0213068 205.960227,26.3991477 205.414773,25.5553977 C204.869318,24.7116477 204.600852,23.6463068 204.609375,22.359375 L204.609375,3.33664773 Z" id="Shape"></path>
                        <path d="M217.291193,27.6775568 L217.291193,8.04119318 L222.737216,8.04119318 L222.737216,27.6775568 L217.291193,27.6775568 Z M220.026989,5.50994318 C219.21733,5.50994318 218.524858,5.23934659 217.949574,4.69815341 C217.37429,4.15696023 217.086648,3.50710227 217.086648,2.74857955 C217.086648,1.99857955 217.37429,1.35298295 217.949574,0.811789773 C218.524858,0.270596591 219.21733,0 220.026989,0 C220.836648,0 221.529119,0.270596591 222.104403,0.811789773 C222.679688,1.35298295 222.96733,1.99857955 222.96733,2.74857955 C222.96733,3.50710227 222.679688,4.15696023 222.104403,4.69815341 C221.529119,5.23934659 220.836648,5.50994318 220.026989,5.50994318 Z" id="Shape"></path>
                        <path d="M235.955966,28.0610795 C233.97017,28.0610795 232.254972,27.6370739 230.810369,26.7890625 C229.365767,25.9410511 228.25142,24.756392 227.46733,23.2350852 C226.683239,21.7137784 226.291193,19.9474432 226.291193,17.9360795 C226.291193,15.9076705 226.683239,14.1328125 227.46733,12.6115057 C228.25142,11.0901989 229.365767,9.90553977 230.810369,9.05752841 C232.254972,8.20951705 233.97017,7.78551136 235.955966,7.78551136 C237.941761,7.78551136 239.65696,8.20951705 241.101562,9.05752841 C242.546165,9.90553977 243.660511,11.0901989 244.444602,12.6115057 C245.228693,14.1328125 245.620739,15.9076705 245.620739,17.9360795 C245.620739,19.9474432 245.228693,21.7137784 244.444602,23.2350852 C243.660511,24.756392 242.546165,25.9410511 241.101562,26.7890625 C239.65696,27.6370739 237.941761,28.0610795 235.955966,28.0610795 Z M235.981534,23.8423295 C236.884943,23.8423295 237.639205,23.584517 238.244318,23.068892 C238.849432,22.553267 239.307528,21.8480114 239.618608,20.953125 C239.929688,20.0582386 240.085227,19.0397727 240.085227,17.8977273 C240.085227,16.7556818 239.929688,15.7372159 239.618608,14.8423295 C239.307528,13.9474432 238.849432,13.2400568 238.244318,12.7201705 C237.639205,12.2002841 236.884943,11.9403409 235.981534,11.9403409 C235.069602,11.9403409 234.304688,12.2002841 233.68679,12.7201705 C233.068892,13.2400568 232.604403,13.9474432 232.293324,14.8423295 C231.982244,15.7372159 231.826705,16.7556818 231.826705,17.8977273 C231.826705,19.0397727 231.982244,20.0582386 232.293324,20.953125 C232.604403,21.8480114 233.068892,22.553267 233.68679,23.068892 C234.304688,23.584517 235.069602,23.8423295 235.981534,23.8423295 Z" id="Shape"></path>
                        <path d="M254.620739,16.3252841 L254.620739,27.6775568 L249.174716,27.6775568 L249.174716,8.04119318 L254.365057,8.04119318 L254.365057,11.5056818 L254.59517,11.5056818 C255.02983,10.3636364 255.758523,9.45809659 256.78125,8.7890625 C257.803977,8.12002841 259.044034,7.78551136 260.50142,7.78551136 C261.865057,7.78551136 263.053977,8.08380682 264.068182,8.68039773 C265.082386,9.27698864 265.870739,10.1271307 266.433239,11.2308239 C266.995739,12.334517 267.276989,13.6491477 267.276989,15.1747159 L267.276989,27.6775568 L261.830966,27.6775568 L261.830966,16.1463068 C261.839489,14.9446023 261.53267,14.0049716 260.910511,13.3274148 C260.288352,12.649858 259.431818,12.3110795 258.340909,12.3110795 C257.607955,12.3110795 256.962358,12.46875 256.404119,12.7840909 C255.845881,13.0994318 255.411222,13.5575284 255.100142,14.1583807 C254.789062,14.759233 254.629261,15.4815341 254.620739,16.3252841 Z" id="Path"></path>
                    </g>
                </g>
                <g id="in-arrows" transform="translate(327, 40)" fill="#FFFFFF" fill-rule="nonzero">
                    <path id="Line-Copy" d="M-0.156893087,89.2476057 L0.797750605,89.5453563 L142.932,133.876 L144.719243,128.148986 L156,139 L140.550734,141.513997 L142.337,135.786 L0.202249395,91.4546437 L-0.752394296,91.1568931 L-0.156893087,89.2476057 Z" transform="translate(78, 114.5) scale(1, -1) translate(-78, -114.5)"></path>
                    <path id="Line-Copy-2" d="M-0.156893087,-0.752394296 L0.797750605,-0.454643691 L142.932,43.876 L144.719243,38.1489857 L156,49 L140.550734,51.5139974 L142.337,45.786 L0.202249395,1.45464369 L-0.752394296,1.15689309 L-0.156893087,-0.752394296 Z"></path>
                </g>
                <g id="out-arrows" transform="translate(691, 109.5) scale(-1, 1) translate(-691, -109.5)translate(613, 40)" fill="#FFFFFF" fill-rule="nonzero">
                    <path id="Line-Copy" d="M15.9492659,87.9860026 L14.162,93.713 L156.297751,138.045356 L157.252394,138.343107 L156.656893,140.252394 L155.702249,139.954644 L13.567,95.623 L11.7807574,101.351014 L0.5,90.5 L15.9492659,87.9860026 Z" transform="translate(78, 114.5) scale(1, -1) translate(-78, -114.5)"></path>
                    <path id="Line-Copy-2" d="M15.9492659,-2.01399737 L14.163,3.713 L156.297751,48.0453563 L157.252394,48.3431069 L156.656893,50.2523943 L155.702249,49.9546437 L13.567,5.623 L11.7807574,11.3510143 L0.5,0.5 L15.9492659,-2.01399737 Z"></path>
                </g>
            </g>
        </g>
    </g>
</svg>