<svg width="87" height="24" viewBox="0 0 87 24" fill="none" xmlns="http://www.w3.org/2000/svg">
<g clip-path="url(#clip0_71_914)">
<path fill-rule="evenodd" clip-rule="evenodd" d="M3.58338 0V5.42116C4.10446 4.94188 4.79794 4.64964 5.55874 4.64964H8.45821V5.61052H5.55874C4.46855 5.61052 3.58334 6.50063 3.58334 7.59953V9.18663H3.58497V11.7762C3.58497 12.8102 3.05663 13.7195 2.25752 14.2461C3.05616 14.7733 3.58338 15.6826 3.58338 16.715V19.7434H3.58334V20.8933C3.58334 21.991 4.46736 22.8823 5.55874 22.8823H8.45821V23.8432H5.55874C3.93991 23.8432 2.62905 22.5213 2.62905 20.8933V18.9235H2.62909V16.715C2.62909 15.6216 1.75187 14.7329 0.666299 14.7261L0.655283 14.7261H0V14.726V13.7652V13.7652H0.653693L0.66661 13.7652C1.7516 13.759 2.63068 12.8713 2.63068 11.7762V10.4357H2.62905V7.59953C2.62905 7.45152 2.63987 7.30606 2.66077 7.16392C1.19753 6.69547 0.138371 5.31725 0.138371 3.68877C0.138371 1.9335 1.36851 0.473439 3.00715 0.123173L3.58338 0ZM2.62908 1.25773C1.72058 1.68634 1.09267 2.61324 1.09267 3.68877C1.09267 4.76489 1.72103 5.69358 2.62908 6.12182V1.25773ZM19.2752 18.9235V20.8933C19.2752 21.991 18.3912 22.8823 17.2998 22.8823H14.4019V23.8432H17.2998C18.9186 23.8432 20.2295 22.5213 20.2295 20.8933V19.7434H20.2295V16.715C20.2295 15.6214 21.107 14.7326 22.1929 14.7261L22.2049 14.7261H22.8602V14.726V13.7652V13.7652H22.2049L22.1929 13.7652C21.1082 13.7587 20.2295 12.8711 20.2295 11.7762V10.4357H20.2311V7.59953C20.2311 7.45153 20.2202 7.30608 20.1994 7.16395C21.6627 6.69554 22.7219 5.31729 22.7219 3.68877C22.7219 1.9335 21.4917 0.473439 19.8531 0.123173L19.2769 0V5.42127C18.7558 4.94193 18.0622 4.64964 17.3014 4.64964H14.4019V5.61052H17.3014C18.3916 5.61052 19.2768 6.50063 19.2768 7.59953V9.18663H19.2752V11.7762C19.2752 12.8099 19.8032 13.7189 20.6019 14.2456C19.8028 14.7726 19.2752 15.6823 19.2752 16.715V18.9235H19.2752ZM9.42838 18.5824C8.59764 18.5824 7.92377 17.9039 7.92377 17.0674H6.96948C6.96948 18.4346 8.0706 19.5433 9.42838 19.5433C10.2415 19.5433 10.9626 19.1457 11.4102 18.5331C11.8579 19.1457 12.5789 19.5433 13.3921 19.5433C14.7498 19.5433 15.851 18.4346 15.851 17.0674H14.8967C14.8967 17.9039 14.2228 18.5824 13.3921 18.5824C12.5619 18.5824 11.8884 17.9048 11.8874 17.0692L11.8874 17.0674L11.8874 15.0965L13.8215 14.1228L13.3948 13.2634L11.4101 14.2626L9.42542 13.2634L8.99864 14.1228L10.9332 15.0968V17.0674H10.933C10.933 17.9039 10.2591 18.5824 9.42838 18.5824ZM14.5657 11.4255C15.2342 11.4255 15.7761 10.8798 15.7761 10.2067C15.7761 9.53366 15.2342 8.98803 14.5657 8.98803C13.8973 8.98803 13.3554 9.53366 13.3554 10.2067C13.3554 10.8798 13.8973 11.4255 14.5657 11.4255ZM9.46507 10.2067C9.46507 10.8798 8.92317 11.4255 8.2547 11.4255C7.58623 11.4255 7.04433 10.8798 7.04433 10.2067C7.04433 9.53366 7.58623 8.98803 8.2547 8.98803C8.92317 8.98803 9.46507 9.53366 9.46507 10.2067ZM20.2311 6.12182V1.25773C21.1397 1.68634 21.7676 2.61324 21.7676 3.68877C21.7676 4.76489 21.1392 5.69358 20.2311 6.12182Z" fill="#F7F7F7"/>
<path d="M29.583 6.75208H33.1414V23.7907H29.583V6.75208Z" fill="#F7F7F7"/>
<path d="M35.3596 9.13961C34.9497 8.75761 34.7439 8.28191 34.7439 7.71612C34.7439 7.15033 34.9497 6.67463 35.3596 6.29264C35.7695 5.91064 36.3029 5.71783 36.9562 5.71783C37.6096 5.71783 38.143 5.90163 38.5529 6.26921C38.9628 6.63679 39.1686 7.09627 39.1686 7.64765C39.1686 8.24407 38.9628 8.73779 38.5529 9.1288C38.143 9.51981 37.6096 9.71441 36.9562 9.71441C36.3029 9.71441 35.7695 9.52341 35.3596 9.13961ZM35.1771 11.4352H38.7354V23.7907H35.1771V11.4352Z" fill="#F7F7F7"/>
<path d="M51.1379 12.0442C52.074 12.5722 52.8061 13.3145 53.3395 14.2713C53.8711 15.2281 54.1378 16.3417 54.1378 17.612C54.1378 18.8823 53.8711 19.9959 53.3395 20.9527C52.8061 21.9095 52.074 22.6519 51.1379 23.1798C50.2035 23.7078 49.1654 23.9727 48.0234 23.9727C46.3355 23.9727 45.0503 23.4375 44.1679 22.3654V23.7889H40.7688V6.75208H44.3272V12.7451C45.2239 11.7505 46.4554 11.2532 48.0234 11.2532C49.1636 11.2532 50.2017 11.5163 51.1379 12.046V12.0442ZM49.6558 20.104C50.2411 19.4842 50.5347 18.6535 50.5347 17.612C50.5347 16.5705 50.2411 15.7399 49.6558 15.12C49.0705 14.5002 48.3205 14.1902 47.4094 14.1902C46.4984 14.1902 45.7484 14.5002 45.1631 15.12C44.5778 15.7399 44.2842 16.5705 44.2842 17.612C44.2842 18.6535 44.5778 19.4842 45.1631 20.104C45.7484 20.7239 46.4984 21.0338 47.4094 21.0338C48.3205 21.0338 49.0705 20.7239 49.6558 20.104Z" fill="#F7F7F7"/>
<path d="M55.2373 6.75208H58.7957V23.7907H55.2373V6.75208Z" fill="#F7F7F7"/>
<path d="M70.16 12.6191C71.1784 13.5308 71.6886 14.9039 71.6886 16.7418V23.7907H68.3575V22.2519C67.6881 23.3997 66.4405 23.9745 64.6166 23.9745C63.6733 23.9745 62.8553 23.8142 62.1644 23.4916C61.4717 23.1709 60.9436 22.7258 60.5785 22.16C60.2133 21.5943 60.0308 20.951 60.0308 20.232C60.0308 19.0842 60.4603 18.1815 61.3195 17.522C62.1787 16.8643 63.505 16.5346 65.3003 16.5346H68.1284C68.1284 15.7544 67.8921 15.1525 67.4214 14.7327C66.9506 14.311 66.2436 14.102 65.3003 14.102C64.647 14.102 64.0044 14.2047 63.3726 14.412C62.7407 14.6192 62.2055 14.8985 61.7652 15.2498L60.4872 12.747C61.1566 12.2731 61.9585 11.9055 62.8946 11.6443C63.829 11.3848 64.792 11.2533 65.78 11.2533C67.6809 11.2533 69.1415 11.7091 70.16 12.6191ZM67.126 21.1384C67.5968 20.8555 67.9315 20.4374 68.1302 19.8879V18.6248H65.6887C64.2281 18.6248 63.4996 19.1077 63.4996 20.0717C63.4996 20.5311 63.6786 20.8951 64.0348 21.1618C64.3928 21.4303 64.8833 21.5636 65.5062 21.5636C66.1291 21.5636 66.6535 21.4231 67.126 21.1384Z" fill="#F7F7F7"/>
<path d="M84.0002 12.0442C84.9363 12.5722 85.6684 13.3145 86.2018 14.2713C86.7334 15.2281 87.0001 16.3417 87.0001 17.612C87.0001 18.8823 86.7334 19.9959 86.2018 20.9527C85.6684 21.9095 84.9363 22.6519 84.0002 23.1798C83.0658 23.7078 82.0277 23.9727 80.8857 23.9727C79.1978 23.9727 77.9126 23.4375 77.0302 22.3654V23.7889H73.6311V6.75208H77.1895V12.7451C78.0862 11.7505 79.3177 11.2532 80.8857 11.2532C82.0259 11.2532 83.064 11.5163 84.0002 12.046V12.0442ZM82.5181 20.104C83.1034 19.4842 83.397 18.6535 83.397 17.612C83.397 16.5705 83.1034 15.7399 82.5181 15.12C81.9328 14.5002 81.1828 14.1902 80.2717 14.1902C79.3607 14.1902 78.6107 14.5002 78.0254 15.12C77.4401 15.7399 77.1465 16.5705 77.1465 17.612C77.1465 18.6535 77.4401 19.4842 78.0254 20.104C78.6107 20.7239 79.3607 21.0338 80.2717 21.0338C81.1828 21.0338 81.9328 20.7239 82.5181 20.104Z" fill="#F7F7F7"/>
</g>
<defs>
<clipPath id="clip0_71_914">
<rect width="87" height="24" fill="white"/>
</clipPath>
</defs>
</svg>
